<svg width="296" height="234" viewBox="0 0 296 234" fill="none" xmlns="http://www.w3.org/2000/svg">
    <path d="M97.0337 212.337V218.848L103.236 219.982L106.521 210.959L97.0337 212.337Z"
        fill="#F9B499" />
    <path d="M127.609 213.996L128.081 220.486L134.348 221.167L136.017 211.326L127.609 213.996Z"
        fill="#F9B499" />
    <path
        d="M33.7382 9.7968L48.3885 59.8836C48.4196 59.997 48.4843 60.0983 48.574 60.1741C48.6638 60.25 48.7743 60.2968 48.8911 60.3085L75.5248 62.6489C75.6182 62.6567 75.7122 62.6421 75.7988 62.6061C75.8855 62.5701 75.9623 62.5139 76.0229 62.4422C76.0834 62.3704 76.126 62.2852 76.147 62.1936C76.168 62.102 76.1668 62.0067 76.1436 61.9156L62.9396 11.4107C62.9097 11.2904 62.8427 11.1826 62.7482 11.1026C62.6537 11.0226 62.5364 10.9746 62.413 10.9653L34.3365 9.04637C34.2426 9.04032 34.1487 9.05707 34.0626 9.09518C33.9766 9.1333 33.901 9.19167 33.8423 9.26533C33.7835 9.33899 33.7434 9.42577 33.7253 9.5183C33.7072 9.61082 33.7116 9.70636 33.7382 9.7968Z"
        fill="#CCCCCC" />
    <path
        d="M147.378 39.1935V39.125C147.376 38.9375 147.411 38.7516 147.482 38.5779C147.552 38.4042 147.656 38.2462 147.788 38.113C147.919 37.9798 148.076 37.8741 148.249 37.8019C148.421 37.7298 148.606 37.6926 148.793 37.6926H226.335C226.711 37.6926 227.071 37.8421 227.336 38.1081C227.602 38.3742 227.751 38.735 227.751 39.1112V39.1798H231.464C232.001 39.1798 232.516 39.3935 232.895 39.7739C233.275 40.1544 233.488 40.6703 233.488 41.2083V44.2923C233.488 44.4361 233.46 44.5785 233.405 44.7114C233.35 44.8442 233.269 44.9649 233.167 45.0664C233.066 45.168 232.945 45.2484 232.812 45.3032C232.68 45.3579 232.537 45.3858 232.394 45.3854H232.001"
        fill="#BCBEC0" />
    <path opacity="0.2"
        d="M147.378 39.1935V39.125C147.376 38.9375 147.411 38.7516 147.482 38.5779C147.552 38.4042 147.656 38.2462 147.788 38.113C147.919 37.9798 148.076 37.8741 148.249 37.8019C148.421 37.7298 148.606 37.6926 148.793 37.6926H226.335C226.711 37.6926 227.071 37.8421 227.336 38.1081C227.602 38.3742 227.751 38.735 227.751 39.1112V39.1798H231.464C232.001 39.1798 232.516 39.3935 232.895 39.7739C233.275 40.1544 233.488 40.6703 233.488 41.2083V44.2923C233.488 44.4361 233.46 44.5785 233.405 44.7114C233.35 44.8442 233.269 44.9649 233.167 45.0664C233.066 45.168 232.945 45.2484 232.812 45.3032C232.68 45.3579 232.537 45.3858 232.394 45.3854H232.001"
        fill="black" />
    <path
        d="M141.644 44.2616V40.996C141.644 40.518 141.834 40.0595 142.171 39.7215C142.508 39.3835 142.965 39.1936 143.442 39.1936H225.713C225.985 39.1936 226.246 39.3019 226.438 39.4947C226.631 39.6875 226.739 39.9489 226.739 40.2216V40.7767H230.592C231.069 40.7767 231.526 40.9666 231.863 41.3046C232.201 41.6426 232.39 42.1011 232.39 42.5791V44.2684C232.391 44.5052 232.344 44.7398 232.254 44.9587C232.164 45.1776 232.031 45.3765 231.864 45.5439C231.697 45.7114 231.499 45.8441 231.28 45.9345C231.062 46.025 230.828 46.0713 230.592 46.0708H143.442C143.206 46.0708 142.971 46.024 142.753 45.933C142.534 45.842 142.335 45.7086 142.168 45.5405C142.001 45.3724 141.869 45.1729 141.779 44.9534C141.689 44.7339 141.643 44.4988 141.644 44.2616Z"
        fill="#BCBEC0" />
    <path
        d="M116.648 107.202L118.433 143.736L124.758 213.639C124.758 213.639 132.218 215.263 136.762 213.639C136.762 213.639 138.057 211.525 136.762 207.948C136.762 207.948 135.545 203.836 136.762 200.31C138.409 195.882 138.278 190.987 136.396 186.655C136.396 186.655 134.085 180.315 136.153 174.829C136.153 174.829 139.897 163.611 137.904 156.418C137.904 156.418 137.613 150.079 139.073 147.509C139.073 147.509 155.484 122.639 155.484 115.323C155.484 115.323 157.067 104.92 155.18 103.905L116.648 107.202Z"
        fill="#2F2E41" />
    <path
        d="M95.5086 213.882L106.473 214.355C106.473 214.355 108.296 214.204 109.147 210.425C109.147 210.425 111.581 205.912 113.284 204.692C113.284 204.692 121.226 197.088 122.669 190.526L118.433 143.736L94.7804 212.813C94.7392 212.932 94.7263 213.059 94.7429 213.184C94.7594 213.309 94.8049 213.428 94.8757 213.532C94.9465 213.636 95.0407 213.721 95.1506 213.782C95.2605 213.843 95.3831 213.877 95.5086 213.882Z"
        fill="#2F2E41" />
    <path opacity="0.2"
        d="M95.5086 213.882L106.473 214.355C106.473 214.355 108.296 214.204 109.147 210.425C109.147 210.425 111.581 205.912 113.284 204.692C113.284 204.692 121.226 197.088 122.669 190.526L118.433 143.736L94.7804 212.813C94.7392 212.932 94.7263 213.059 94.7429 213.184C94.7594 213.309 94.8049 213.428 94.8757 213.532C94.9465 213.636 95.0407 213.721 95.1506 213.782C95.2605 213.843 95.3831 213.877 95.5086 213.882Z"
        fill="black" />
    <path opacity="0.2"
        d="M140.178 63.0498C140.178 63.0498 139.278 93.6049 173.386 114.524C173.666 114.696 173.953 114.867 174.241 115.025C175.331 115.652 179.171 118.088 178.918 121.306C178.918 121.306 180.696 116.793 173.482 112.777C173.482 112.777 157.754 99.1595 151.73 90.377C151.74 90.3839 144.779 83.517 140.178 63.0498Z"
        fill="black" />
    <path opacity="0.2"
        d="M232.725 71.1639C232.652 76.0662 231.99 80.9418 230.756 85.6859C230.756 85.6859 230.318 88.6534 227.867 93.2964C227.822 93.3855 227.771 93.4746 227.723 93.5671C223.125 101.836 214.673 111.324 199.346 120.363L199.315 120.384C198.787 120.715 198.306 121.115 197.883 121.573C197.862 121.6 197.835 121.624 197.811 121.652C197.202 122.32 196.649 123.039 196.159 123.8C195.65 124.585 195.346 125.171 195.346 125.171C195.346 125.171 195.995 121.038 198.953 119.027C198.953 119.027 213.5 109.737 220.314 101.208C220.684 100.749 221.049 100.29 221.429 99.8378C223.549 97.3535 232.127 86.0114 232.523 70.0571C232.527 70.088 232.623 70.4649 232.725 71.1639Z"
        fill="black" />
    <path
        d="M154.783 91.5522C154.783 91.5522 164.733 108.685 174.75 114.874C176.294 115.806 177.603 117.081 178.579 118.6C179.554 120.119 180.17 121.841 180.378 123.636C180.378 123.779 180.409 123.923 180.419 124.074C180.419 124.074 179.834 134.251 187.373 137.602C187.578 137.799 187.735 138.04 187.831 138.308C187.928 138.576 187.96 138.862 187.927 139.144L187.359 180.815C187.359 180.815 179.28 199.401 147.357 197.644C147.357 197.644 147.751 209.092 151.552 212.337H223.693C223.693 212.337 228.062 205.617 227.453 200.217C227.453 200.217 208.953 193.706 202.348 189.317C202.348 189.317 189.811 180.658 188.306 180.579L188.464 138.668C188.464 138.668 188.621 136.208 189.889 135.334C189.889 135.334 191.076 133.826 190.915 132.555C190.915 132.555 191.63 129.173 192.659 128.207C192.659 128.207 192.895 129.855 192.58 130.571C192.58 130.571 193.845 129.221 193.37 126.761C193.37 126.761 193.845 120.648 196.618 118.266C196.618 118.266 213.962 105.17 218.954 94.691C218.954 94.691 216.65 92.6864 210.714 93.9405C209.462 94.2115 208.234 94.5886 207.046 95.0679C203.428 96.5036 189.657 101.236 180.685 94.0228C180.559 93.92 180.436 93.8172 180.316 93.711C179.574 93.0599 172.227 87.3135 154.783 91.5522Z"
        fill="white" />
    <path opacity="0.45"
        d="M156.294 94.0606C156.294 94.0606 169.314 89.7911 177.711 95.7191C177.711 95.7191 187.284 103.289 199.681 97.2817C199.681 97.2817 188.795 99.9236 181.325 94.5404C181.325 94.5404 178.104 91.3879 172.189 90.5107C172.189 90.5107 164.606 88.8967 154.783 91.6003L156.294 94.0606Z"
        fill="black" />
    <path opacity="0.45"
        d="M207.945 94.7117C207.945 94.7117 215.511 94.369 216.318 95.1195C216.318 95.1195 210.119 107.006 199.654 115.871C199.654 115.871 215.637 103.062 218.974 94.6911C218.974 94.6911 215.425 91.9293 207.945 94.7117Z"
        fill="black" />
    <path opacity="0.2"
        d="M140.776 187.282C140.776 187.282 137.62 161.424 171.317 139.463C171.317 139.463 142.954 157.682 140.776 187.282Z"
        fill="black" />
    <path opacity="0.45"
        d="M147.552 214.225C147.552 214.225 136.314 196.407 148.974 172.763C148.974 172.763 139.743 195.834 153.101 214.225H147.552Z"
        fill="black" />
    <path opacity="0.2"
        d="M198.946 141.139C198.946 141.139 232.11 159.985 232.876 191.582C232.876 191.582 233.094 177.91 226.496 166.139C226.496 166.139 221.89 155.14 198.946 141.139Z"
        fill="black" />
    <path
        d="M149.412 31.1171L150.629 37.912L140.653 42.6682L139.757 37.4255L148.533 29.6196L149.412 31.1171Z"
        fill="#F9B499" />
    <path
        d="M153.128 42.2844C153.128 42.2844 165.467 43.7647 165.307 59.695C165.307 59.695 161.457 104.241 155.19 103.898C155.19 103.898 124.276 106.417 116.939 108.164C110.973 109.587 113.892 94.8007 113.892 94.8007C113.892 94.8007 108.213 92.1999 106.432 90.4112C106.432 90.4112 109.851 83.2599 111.458 82.9343L115.352 85.0486C115.352 85.0486 114.709 48.1748 138.386 43.4495L153.128 42.2844Z"
        fill="#00D2CB" />
    <g opacity="0.05">
        <path
            d="M127.797 97.076C122.296 97.076 118.487 95.791 118.436 95.7739L118.713 94.9652C118.788 94.9926 126.447 97.566 135.698 95.2736C147.935 92.2445 157.429 82.0845 163.159 65.8938L163.96 66.1782C160.711 75.365 156.301 82.626 150.855 87.8001C146.67 91.8394 141.5 94.7061 135.862 96.1131C133.222 96.7568 130.514 97.08 127.797 97.076Z"
            fill="black" />
    </g>
    <g opacity="0.05">
        <path
            d="M121.578 87.5226C120.997 87.5241 120.416 87.4932 119.838 87.4301L119.947 86.5803C119.995 86.5803 124.888 87.1799 127.602 85.0452L128.129 85.7305C126.19 87.2416 123.38 87.5226 121.578 87.5226Z"
            fill="black" />
    </g>
    <g opacity="0.05">
        <path
            d="M144.759 69.9748L144.007 69.5602C144.304 69.0016 151.313 55.8743 157.607 54.7126L157.761 55.5522C151.87 56.6521 144.831 69.8411 144.759 69.9748Z"
            fill="black" />
    </g>
    <g opacity="0.05">
        <path
            d="M158.076 52.9515C157.156 48.1851 154.414 46.4924 154.383 46.4787L154.818 45.7419C154.944 45.8173 157.915 47.6197 158.92 52.7871L158.076 52.9515Z"
            fill="black" />
    </g>
    <g opacity="0.05">
        <path d="M138.735 79.4369L138.039 79.929L140.1 82.8543L140.795 82.3622L138.735 79.4369Z"
            fill="black" />
    </g>
    <g opacity="0.05">
        <path
            d="M138.81 84.7299H137.959C137.959 82.5917 137.511 81.5295 137.507 81.5192L138.283 81.1765C138.307 81.2108 138.81 82.3895 138.81 84.7299Z"
            fill="black" />
    </g>
    <path
        d="M82.4277 51.0875L85.1834 78.3908H85.6723C85.6723 78.3908 85.2655 81.132 88.2673 81.3445C90.9683 81.5398 124.573 83.6677 131.237 84.0858C131.972 84.1308 132.697 83.8931 133.264 83.421L135.945 81.1903C135.982 81.1596 136.009 81.1187 136.023 81.0726C136.037 81.0265 136.038 80.9773 136.024 80.931C136.011 80.8847 135.984 80.8433 135.948 80.8121C135.911 80.7808 135.866 80.761 135.818 80.7551L123.879 79.2817L122.238 52.8693C122.218 52.5323 122.075 52.2145 121.836 51.9768C121.597 51.739 121.279 51.5981 120.942 51.5809L83.8637 49.5729C83.6657 49.5619 83.4676 49.5941 83.2833 49.6674C83.099 49.7406 82.9327 49.8532 82.7961 49.9973C82.6595 50.1414 82.5558 50.3135 82.4922 50.5018C82.4286 50.69 82.4066 50.8899 82.4277 51.0875Z"
        fill="#2F2E41" />
    <path opacity="0.45"
        d="M102.295 67.6618C103.572 67.6618 104.606 66.6247 104.606 65.3454C104.606 64.0661 103.572 63.0291 102.295 63.0291C101.019 63.0291 99.9839 64.0661 99.9839 65.3454C99.9839 66.6247 101.019 67.6618 102.295 67.6618Z"
        fill="black" />
    <path
        d="M105.813 87.3376C104.374 87.1251 99.9533 85.7751 96.189 77.3319C96.1015 77.1464 96.0548 76.9442 96.0522 76.7391C96.0522 76.4375 96.1651 76.136 96.736 76.5129L99.7584 80.9915C99.7584 80.9915 96.883 76.321 96.1104 73.847C96.0745 73.7293 96.0792 73.6029 96.1237 73.4882C96.1682 73.3735 96.2499 73.2771 96.3557 73.2146C96.4615 73.1521 96.5852 73.1271 96.7069 73.1436C96.8286 73.1601 96.9412 73.2172 97.0267 73.3056C97.9771 74.3027 99.5157 76.2902 101.129 79.9087C101.129 79.9087 96.5651 70.6568 98.1686 70.8727C98.1686 70.8727 100.716 72.819 103.581 79.052C103.581 79.052 99.5498 71.2976 101.123 70.8282C101.252 70.795 101.389 70.8118 101.507 70.8753C101.625 70.9387 101.715 71.0442 101.758 71.1708C102.244 72.4901 104.299 77.7396 107.383 80.7653C107.383 80.7653 107.755 77.5752 107.554 76.0195C107.538 75.9041 107.557 75.7865 107.61 75.6825C107.662 75.5785 107.745 75.4931 107.847 75.4376C107.949 75.3821 108.066 75.3592 108.182 75.3719C108.297 75.3847 108.406 75.4325 108.494 75.5089C108.918 75.9167 109.314 76.8796 109.362 79.052C109.362 79.052 109.229 83.5238 109.779 84.5655L107.824 87.7214L107.243 87.6049C106.771 87.4884 106.292 87.4061 105.813 87.3376Z"
        fill="#F9B499" />
    <path
        d="M18.9651 37.6722L48.098 40.0708L55.8796 68.7104C55.9003 68.7877 55.9021 68.8688 55.8848 68.9469C55.8675 69.025 55.8316 69.0977 55.7803 69.1589C55.7289 69.2202 55.6636 69.2681 55.5898 69.2985C55.516 69.329 55.436 69.3412 55.3565 69.3341L26.5688 66.7778C26.4688 66.7682 26.374 66.7283 26.297 66.6635C26.2201 66.5986 26.1646 66.5118 26.1381 66.4146L18.4625 38.2958C18.4417 38.2203 18.4392 38.1409 18.4552 38.0642C18.4711 37.9875 18.505 37.9157 18.5542 37.8548C18.6033 37.7938 18.6662 37.7455 18.7376 37.7137C18.8091 37.682 18.887 37.6677 18.9651 37.6722Z"
        fill="#BCBEC0" />
    <path
        d="M27.0749 23.0852C23.3525 27.0771 20.2416 31.6003 17.8438 36.5072L47.3118 38.6557L27.0749 23.0852Z"
        fill="#BCBEC0" />
    <path
        d="M79.6618 33.7865L82.1439 37.1069L90.4178 23.164C90.5249 22.9829 90.6698 22.8271 90.8425 22.7074C91.0153 22.5876 91.2119 22.5068 91.4187 22.4703C91.6256 22.4338 91.8379 22.4427 92.0411 22.4962C92.2442 22.5497 92.4334 22.6466 92.5957 22.7802C92.8681 23 93.0525 23.3106 93.1153 23.6554C93.1781 24.0001 93.115 24.356 92.9376 24.658L83.4226 40.6809C83.328 40.8407 83.1962 40.9751 83.0384 41.0725C82.8805 41.17 82.7014 41.2276 82.5165 41.2404C82.3316 41.2532 82.1463 41.2208 81.9766 41.146C81.8069 41.0713 81.6578 40.9563 81.5422 40.8111L77.354 35.5992C77.1579 35.3553 77.0442 35.0552 77.0295 34.7423C77.0147 34.4293 77.0996 34.1198 77.2719 33.8585C77.4027 33.6646 77.5776 33.5046 77.7821 33.3918C77.9867 33.2789 78.2151 33.2164 78.4485 33.2094C78.6819 33.2024 78.9136 33.251 79.1245 33.3514C79.3355 33.4517 79.5196 33.6008 79.6618 33.7865Z"
        fill="#BCBEC0" />
    <path
        d="M104.231 218.789L96.5825 216.774L95.4576 224.46C95.4576 224.46 89.8095 223.007 88.3394 225.547L102.309 229.24L104.231 218.789Z"
        fill="#2F2E41" />
    <path d="M87.925 227.133L101.896 230.812L102.312 229.225L88.3411 225.546L87.925 227.133Z"
        fill="#2F2E41" />
    <path
        d="M135.251 217.957L127.349 217.614L127.893 225.365C127.893 225.365 122.081 225.156 121.171 227.952L135.603 228.555L135.251 217.957Z"
        fill="#2F2E41" />
    <path d="M121.109 229.607L135.542 230.201L135.609 228.561L121.176 227.967L121.109 229.607Z"
        fill="#2F2E41" />
    <path
        d="M145.193 46.1084L145.672 44.5596L142.506 41.2427L150.629 37.4734C150.629 37.4734 151.19 37.2267 151.925 38.6795L153.84 41.7635C153.84 41.7635 148.322 45.8138 145.193 46.1084Z"
        fill="#00D2CB" />
    <path opacity="0.1"
        d="M145.193 46.1084L145.672 44.5596L142.506 41.2427L150.629 37.4734C150.629 37.4734 151.19 37.2267 151.925 38.6795L153.84 41.7635C153.84 41.7635 148.322 45.8138 145.193 46.1084Z"
        fill="black" />
    <path
        d="M140.448 45.4471C141.154 45.8698 141.939 46.1461 142.754 46.2597C143.569 46.3732 144.398 46.3218 145.193 46.1085L145.672 44.5596L142.506 41.2427L140.742 44.2033L140.448 45.4471Z"
        fill="#00D2CB" />
    <path opacity="0.2"
        d="M140.448 45.4471C141.154 45.8698 141.939 46.1461 142.754 46.2597C143.569 46.3732 144.398 46.3218 145.193 46.1085L145.672 44.5596L142.506 41.2427L140.742 44.2033L140.448 45.4471Z"
        fill="white" />
    <path
        d="M142.506 41.2426L140.232 40.1941C139.508 41.216 138.889 42.309 138.386 43.4562L140.437 45.4471L140.731 44.1929L142.506 41.2426Z"
        fill="#00D2CB" />
    <path opacity="0.1"
        d="M142.506 41.2426L140.232 40.1941C139.508 41.216 138.889 42.309 138.386 43.4562L140.437 45.4471L140.731 44.1929L142.506 41.2426Z"
        fill="black" />
    <path
        d="M147.378 220.917V220.986C147.378 221.362 147.527 221.723 147.793 221.989C148.058 222.255 148.418 222.404 148.793 222.404H226.335C226.711 222.404 227.07 222.254 227.335 221.988C227.601 221.722 227.75 221.362 227.751 220.986V220.917H231.464C232.001 220.917 232.516 220.704 232.895 220.323C233.275 219.943 233.488 219.427 233.488 218.889V215.805C233.488 215.661 233.46 215.519 233.405 215.386C233.35 215.253 233.269 215.132 233.167 215.031C233.066 214.929 232.945 214.849 232.812 214.794C232.68 214.739 232.537 214.711 232.394 214.712H232.001"
        fill="#BCBEC0" />
    <path opacity="0.2"
        d="M147.378 220.917V220.986C147.378 221.362 147.527 221.723 147.793 221.989C148.058 222.255 148.418 222.404 148.793 222.404H226.335C226.711 222.404 227.07 222.254 227.335 221.988C227.601 221.722 227.75 221.362 227.751 220.986V220.917H231.464C232.001 220.917 232.516 220.704 232.895 220.323C233.275 219.943 233.488 219.427 233.488 218.889V215.805C233.488 215.661 233.46 215.519 233.405 215.386C233.35 215.253 233.269 215.132 233.167 215.031C233.066 214.929 232.945 214.849 232.812 214.794C232.68 214.739 232.537 214.711 232.394 214.712H232.001"
        fill="black" />
    <path
        d="M141.644 215.846V219.115C141.645 219.593 141.835 220.051 142.172 220.388C142.509 220.726 142.966 220.916 143.442 220.917H225.713C225.985 220.917 226.246 220.809 226.438 220.616C226.631 220.423 226.739 220.162 226.739 219.889V219.327H230.592C231.069 219.327 231.526 219.137 231.863 218.799C232.201 218.461 232.39 218.003 232.39 217.525V215.832C232.39 215.354 232.201 214.896 231.863 214.558C231.526 214.22 231.069 214.03 230.592 214.03H143.442C143.205 214.03 142.97 214.078 142.752 214.169C142.533 214.261 142.334 214.395 142.167 214.564C142 214.732 141.868 214.932 141.778 215.152C141.688 215.373 141.643 215.608 141.644 215.846Z"
        fill="#BCBEC0" />
    <path
        d="M140.157 39.7488L139.88 38.1212C139.88 38.1212 142.065 38.8785 146.28 35.2805C146.28 35.2942 145.056 39.0155 140.157 39.7488Z"
        fill="#F7A48B" />
    <path
        d="M139.757 38.683C145.089 38.683 149.412 32.9085 149.412 25.7852C149.412 18.662 145.089 12.8875 139.757 12.8875C134.424 12.8875 130.102 18.662 130.102 25.7852C130.102 32.9085 134.424 38.683 139.757 38.683Z"
        fill="#F9B499" />
    <path
        d="M130.105 20.2376C130.105 20.2376 127.828 15.7248 130.105 12.6785C130.105 12.6785 139.336 3.19022 146.595 8.24447C147.583 8.91536 148.651 9.45876 149.775 9.86183C151.717 10.5848 154.582 12.3496 155.115 16.5266C155.329 18.3532 155.059 20.2041 154.332 21.8927C153.036 24.9766 150.195 31.3467 148.653 31.6003C148.653 31.6003 148.181 29.301 149.07 25.9943C149.257 25.351 149.259 24.6681 149.077 24.0234C148.895 23.3788 148.536 22.7984 148.041 22.3484C147.886 22.2215 147.722 22.107 147.549 22.0058C147.052 21.7225 146.624 21.3342 146.292 20.8678C145.961 20.4015 145.735 19.8683 145.631 19.3056C145.41 17.8826 145.296 16.4452 145.289 15.0052C145.054 15.9517 144.567 16.8163 143.879 17.5063C143.191 18.1963 142.329 18.6856 141.384 18.9218C140.604 19.1297 139.787 19.1659 138.991 19.028C138.086 18.863 137.155 18.9195 136.276 19.1925C135.734 19.5105 135.117 19.6781 134.488 19.6781C133.86 19.6781 133.243 19.5105 132.7 19.1925C132.7 19.1925 131.599 18.7745 130.105 20.2376Z"
        fill="#2F2E41" />
    <path
        d="M149.002 26.0458C149.901 26.0458 150.629 24.9074 150.629 23.5032C150.629 22.099 149.901 20.9607 149.002 20.9607C148.103 20.9607 147.375 22.099 147.375 23.5032C147.375 24.9074 148.103 26.0458 149.002 26.0458Z"
        fill="#F9B499" />
</svg>
