<svg width="340" height="268" viewBox="0 0 340 268" fill="none" xmlns="http://www.w3.org/2000/svg">
    <path
        d="M233.911 9.2146H131.914C127.314 9.2146 123.584 12.9413 123.584 17.5385V227.613C123.584 232.21 127.314 235.937 131.914 235.937H233.911C238.511 235.937 242.24 232.21 242.24 227.613V17.5385C242.24 12.9413 238.511 9.2146 233.911 9.2146Z"
        fill="#2F2E41" />
    <path
        d="M228.531 15.1016H137.471C132.871 15.1016 129.142 18.8283 129.142 23.4254V221.726C129.142 226.323 132.871 230.05 137.471 230.05H228.531C233.131 230.05 236.86 226.323 236.86 221.726V23.4254C236.86 18.8283 233.131 15.1016 228.531 15.1016Z"
        fill="#E4E4E4" />
    <path
        d="M193.657 63.4276C193.657 48.3222 182.999 49.2994 182.999 49.2994C171.889 50.4219 172.906 63.4276 172.906 63.4276C172.906 63.4276 172.788 69.8285 170.318 74.2514L168.299 78.9019H198.821L196.359 74.2514C196.359 74.2514 193.657 70.1581 193.657 63.4276Z"
        fill="#2F2E41" />
    <path
        d="M192.872 58.4947C196.156 58.4947 198.818 55.8345 198.818 52.553C198.818 49.2715 196.156 46.6113 192.872 46.6113C189.588 46.6113 186.926 49.2715 186.926 52.553C186.926 55.8345 189.588 58.4947 192.872 58.4947Z"
        fill="white" />
    <path
        d="M91.3032 80.8877C91.3032 80.8877 90.6552 85.6285 86.728 85.8561C86.728 85.8561 87.1207 94.1525 94.7238 95.2749C94.7238 95.2749 103.222 96.8447 104.569 86.0798C104.569 86.0798 100.308 86.4723 99.1851 80.8877C98.7061 81.4689 98.1044 81.9369 97.423 82.2583C96.7416 82.5796 95.9975 82.7462 95.2441 82.7462C94.4907 82.7462 93.7466 82.5796 93.0653 82.2583C92.3839 81.9369 91.7822 81.4689 91.3032 80.8877Z"
        fill="#F9B499" />
    <path
        d="M112.392 85.083C99.9352 89.6394 99.1851 80.8877 99.1851 80.8877C103.226 77.2929 102.72 69.2595 102.72 69.2595C96.0708 70.4368 93.8206 67.6386 93.8206 67.6386C91.2365 63.9182 89.9444 66.6183 89.9444 66.6183C88.5346 69.3654 86.732 67.0735 86.732 67.0735C87.9926 78.5095 91.3072 80.8877 91.3072 80.8877C89.7363 88.8976 81.0336 85.5069 81.0336 85.5069L81.6267 84.0823C82.3274 82.1479 82.5753 80.0788 82.3513 78.0339C82.1274 75.9889 81.4375 74.0223 80.3346 72.2852C80.3346 72.2852 77.9783 66.5673 84.3757 63.5415C84.3757 63.5415 88.4128 50.0844 102.551 56.8149C102.551 56.8149 109.62 61.3202 107.263 70.841C107.263 70.841 106.117 77.9561 108.441 80.4992C109.027 81.1757 109.553 81.9018 110.012 82.6695C110.696 83.6938 111.591 84.8633 112.392 85.083Z"
        fill="#2F2E41" />
    <path d="M55.4635 234.147L64.2801 236.569L59.4339 246.152L52.9619 244.92L55.4635 234.147Z"
        fill="#F9B499" />
    <path d="M97.2998 237.605L106.423 236.985L105.009 247.632L98.4897 248.601L97.2998 237.605Z"
        fill="#F9B499" />
    <path
        d="M59.7678 257.745L55.9623 257.098L55.8955 253.389L53.5392 256.682L43.4464 254.959C42.9628 254.876 42.5183 254.641 42.1779 254.288C41.8374 253.935 41.6188 253.482 41.5539 252.996C41.489 252.51 41.5812 252.016 41.8171 251.587C42.053 251.157 42.4202 250.813 42.8651 250.607L51.8741 246.423L52.4946 242.793L60.887 244.755L59.7678 257.745Z"
        fill="#00D2CB" />
    <path
        d="M54.5249 235.882L64.8455 238.574L97.6061 156.945L96.263 240.368H106.588C106.588 240.368 123.832 156.858 114.536 143.558L75.8417 147.302C73.827 159.633 71.3215 172.595 68.2111 186.096C64.0915 203.988 59.4221 220.608 54.5249 235.882Z"
        fill="#2F2E41" />
    <path
        d="M106.768 258.785L102.908 258.738L102.264 255.092L100.453 258.711L90.2153 258.585C89.724 258.579 89.2475 258.417 88.8554 258.121C88.4634 257.825 88.1763 257.412 88.0363 256.941C87.8963 256.47 87.9107 255.967 88.0774 255.505C88.244 255.044 88.5542 254.647 88.9625 254.374L97.2096 248.837L97.2567 245.156L105.849 245.776L106.768 258.785Z"
        fill="#00D2CB" />
    <path
        d="M106.379 118.912C106.379 118.912 115.718 117.08 117.289 105.22L112.392 101.688L107.114 111.715L106.379 118.912Z"
        fill="#2F2E41" />
    <path
        d="M162.366 89.9612C160.881 87.0924 156.707 90.3026 156.707 90.3026L152.607 93.0498C152.457 93.1754 152.159 93.4422 151.798 93.7837L151.696 93.7052L133.964 107.496L124.315 98.4146L117.29 105.216L132.346 116.648C133.379 117.431 134.667 117.798 135.958 117.676C137.248 117.555 138.445 116.954 139.313 115.992L154.841 98.7717C156.177 98.3792 160.822 96.9782 162.012 96.0638C163.41 94.9963 163.85 92.8339 162.366 89.9612Z"
        fill="#F9B499" />
    <path
        d="M104.569 86.2839C103.305 96.2482 95.3955 95.3652 95.3955 95.3652C86.9795 94.5058 86.7282 86.0524 86.7282 86.0524C84.8045 86.3549 82.8354 86.1576 81.0102 85.4794C67.1708 92.1825 67.9876 107.17 67.9876 107.17C67.9876 107.17 76.7413 106.946 77.4129 114.348C78.911 118.168 78.911 122.412 77.4129 126.231C77.4129 136.521 75.088 143.177 74.1808 145.383C73.9926 145.819 73.9014 146.29 73.9137 146.764C73.9259 147.239 74.0411 147.705 74.2515 148.13C76.49 152.38 86.7282 148.648 86.7282 148.648C97.8342 143.487 107.711 145.509 107.711 145.509C116.979 146.764 114.921 141.537 112.852 138.287C111.163 135.681 109.864 132.843 108.995 129.862C103.98 112.04 112.392 103.795 112.392 103.795L118.479 108.728L127.233 99.3093C122.1 91.5074 116.473 87.371 112.106 85.1812C112.106 85.1851 107.515 86.955 104.569 86.2839Z"
        fill="#00D2CB" />
    <path
        d="M94.2723 106.527C92.7918 103.658 88.6132 106.868 88.6132 106.868L84.5133 109.615C84.0656 110.008 82.2198 111.742 81.3912 112.527L76.3447 116.228V111.004C74.0473 107.496 68.9498 107.198 68.9498 107.198C68.9498 107.198 66.7349 126.4 73.9963 126.086C75.046 126.024 76.0309 125.558 76.7453 124.787C78.2062 123.265 81.4383 119.886 84.0891 117.111L86.4022 115.439C86.4022 115.439 92.5444 113.701 93.9346 112.629C95.3248 111.558 95.7568 109.395 94.2723 106.527Z"
        fill="#F9B499" />
    <path
        d="M282.153 233.708L281.52 233.782C281.481 233.464 277.66 201.488 285.546 175.358C293.4 149.386 287.988 132.836 287.933 132.672L288.534 132.471C288.589 132.636 294.032 149.378 286.154 175.539C278.308 201.543 282.113 233.386 282.153 233.708Z"
        fill="#E1E1E1" />
    <path
        d="M289.041 136.235C287.67 134.599 285.806 133.451 283.728 132.962L283.873 132.342C286.084 132.865 288.067 134.087 289.528 135.827L289.041 136.235Z"
        fill="#E1E1E1" />
    <path d="M291.756 138.889L289.941 139.914L290.254 140.467L292.069 139.442L291.756 138.889Z"
        fill="#E1E1E1" />
    <path
        d="M288.373 153.621C286.79 150.018 283.859 147.178 280.208 145.705L280.444 145.116C284.247 146.65 287.301 149.607 288.954 153.358L288.373 153.621Z"
        fill="#E1E1E1" />
    <path
        d="M286.684 173.6H286.048C286.027 172.315 285.721 171.05 285.153 169.896C284.585 168.743 283.768 167.729 282.761 166.929L283.154 166.43C284.235 167.291 285.112 168.381 285.722 169.62C286.333 170.86 286.661 172.219 286.684 173.6Z"
        fill="#E1E1E1" />
    <path
        d="M285.255 178.706L284.662 178.474C284.988 177.665 285.477 176.932 286.099 176.32C286.72 175.707 287.461 175.229 288.275 174.915L288.499 175.507C287.768 175.79 287.103 176.22 286.545 176.77C285.987 177.32 285.548 177.979 285.255 178.706Z"
        fill="#E1E1E1" />
    <path
        d="M281.139 211.138L280.652 210.746C281.438 209.812 282.007 206.268 282.321 204.364C282.396 203.909 282.459 203.521 282.514 203.238L283.138 203.36C283.087 203.634 283.024 204.019 282.95 204.466C282.478 207.28 281.972 210.137 281.139 211.138Z"
        fill="#E1E1E1" />
    <path
        d="M280.794 221.295C280.356 220.046 279.533 218.969 278.443 218.217C277.354 217.465 276.054 217.078 274.73 217.111L274.703 216.479C276.161 216.445 277.593 216.874 278.793 217.703C279.992 218.533 280.898 219.722 281.379 221.098L280.794 221.295Z"
        fill="#E1E1E1" />
    <path d="M285.633 227.945L281.158 232.948L281.632 233.372L286.107 228.368L285.633 227.945Z"
        fill="#E1E1E1" />
    <path
        d="M288.789 195.299C289.803 198.58 282.73 204.823 282.73 204.823C282.73 204.823 273.367 203.646 272.35 200.373C271.333 197.1 273.709 191.739 278.241 190.326C282.773 188.913 287.776 192.018 288.789 195.299Z"
        fill="#E1E1E1" />
    <path
        d="M296.636 155.493C295.741 158.977 289.041 161.45 289.041 161.45C289.041 161.45 284.371 156.054 285.271 152.569C286.17 149.084 289.87 145.246 293.007 146.054C296.145 146.863 297.535 152.011 296.636 155.493Z"
        fill="#E1E1E1" />
    <path
        d="M269.758 207.547C273.964 209.176 276.544 216.632 276.544 216.632C276.544 216.632 269.613 220.365 265.407 218.728C261.201 217.092 256.767 212.48 257.945 209.396C259.123 206.311 265.552 205.911 269.758 207.547Z"
        fill="#E1E1E1" />
    <path
        d="M278.98 166.65C279.871 167.309 280.786 167.984 281.854 168.275C282.923 168.565 284.211 168.384 284.921 167.548C285.821 166.516 285.581 164.911 285.012 163.663C283.889 161.187 279.745 156.992 276.56 158.192C271.966 159.931 276.934 165.131 278.98 166.65Z"
        fill="#E1E1E1" />
    <path
        d="M288.389 172.957C287.784 173.702 287.144 174.644 287.474 175.547C287.768 176.332 288.75 176.724 289.59 176.583C290.424 176.392 291.202 176.012 291.864 175.472C293.486 174.346 296.813 171.987 294.692 169.778C292.485 167.478 289.657 171.383 288.389 172.957Z"
        fill="#E1E1E1" />
    <path
        d="M274.813 141.517C274.463 141.538 274.129 141.667 273.857 141.888C273.585 142.108 273.389 142.408 273.297 142.746C273.16 143.531 273.827 144.253 274.475 144.751C276.085 145.991 280.928 149.339 282.007 146.109C283.029 143.06 276.953 141.282 274.813 141.517Z"
        fill="#E1E1E1" />
    <path
        d="M283.739 130.89C282.742 130.984 281.744 130.623 280.743 130.686C279.741 130.749 278.63 131.557 278.854 132.534C279.058 133.437 280.181 133.739 281.108 133.798C282.686 133.895 284.271 133.786 285.821 133.472C286.19 133.44 286.533 133.267 286.779 132.99C287.172 132.393 286.539 131.592 285.852 131.38C285.165 131.169 284.383 131.243 283.759 130.882L283.739 130.89Z"
        fill="#E1E1E1" />
    <path
        d="M293.502 137.75C294.503 137.777 295.466 137.357 296.479 137.357C297.492 137.357 298.643 138.087 298.486 139.076C298.34 139.991 297.241 140.368 296.318 140.485C294.754 140.692 293.169 140.692 291.605 140.485C291.235 140.477 290.882 140.327 290.62 140.065C290.176 139.496 290.765 138.656 291.436 138.401C292.108 138.146 292.893 138.166 293.494 137.766L293.502 137.75Z"
        fill="#E1E1E1" />
    <path
        d="M292.512 211.617C292.738 211.381 293.04 211.232 293.365 211.197C293.579 211.219 293.779 211.313 293.934 211.464C294.088 211.614 294.188 211.811 294.217 212.025C294.267 212.454 294.212 212.889 294.056 213.292C293.376 215.565 285.742 232.028 283.986 229.073C282.95 227.326 285.502 221.534 286.252 219.897C287.709 216.713 289.846 213.887 292.512 211.617Z"
        fill="#E1E1E1" />
    <path
        d="M287.949 131.518C288.554 130.156 289.21 128.735 290.412 127.86C291.613 126.985 293.553 126.918 294.425 128.123C295.403 129.465 294.425 131.51 292.921 132.224C291.417 132.939 289.658 132.727 288.012 132.495C288.012 132.252 287.985 132.008 287.973 131.761L287.949 131.518Z"
        fill="#E1E1E1" />
    <path
        d="M293.121 255.3C285.105 257.184 276.761 257.184 268.745 255.3L264.959 227.342H296.895L293.121 255.3Z"
        fill="#E1E1E1" />
    <path
        d="M224.529 127.213H142.859C141.441 127.213 140.291 128.362 140.291 129.779C140.291 131.197 141.441 132.346 142.859 132.346H224.529C225.948 132.346 227.098 131.197 227.098 129.779C227.098 128.362 225.948 127.213 224.529 127.213Z"
        fill="white" />
    <path
        d="M224.529 141.725H142.859C141.441 141.725 140.291 142.874 140.291 144.292C140.291 145.709 141.441 146.859 142.859 146.859H224.529C225.948 146.859 227.098 145.709 227.098 144.292C227.098 142.874 225.948 141.725 224.529 141.725Z"
        fill="white" />
    <path
        d="M224.529 156.242H142.859C141.441 156.242 140.291 157.391 140.291 158.809C140.291 160.226 141.441 161.375 142.859 161.375H224.529C225.948 161.375 227.098 160.226 227.098 158.809C227.098 157.391 225.948 156.242 224.529 156.242Z"
        fill="white" />
    <path
        d="M224.529 170.759H142.859C141.441 170.759 140.291 171.908 140.291 173.325C140.291 174.743 141.441 175.892 142.859 175.892H224.529C225.948 175.892 227.098 174.743 227.098 173.325C227.098 171.908 225.948 170.759 224.529 170.759Z"
        fill="white" />
    <path
        d="M90.4116 83.419L91.3031 80.8877C91.3031 80.8877 94.9554 84.459 99.185 80.8877C99.185 80.8877 97.4413 85.8247 90.4116 83.419Z"
        fill="#F4A48E" />
    <path
        d="M86.728 67.0737C86.728 67.0737 87.9062 83.7253 95.9844 82.7167C95.9844 82.7167 102.884 81.7042 102.716 69.2596C102.716 69.2596 95.9098 70.9589 92.9723 66.6538C92.7909 66.3712 92.5401 66.1398 92.2438 65.9818C91.9474 65.8238 91.6155 65.7444 91.2796 65.7511C90.6906 65.7747 90.0661 66.069 89.7559 67.0737C89.7559 67.0737 88.2989 69.0359 86.728 67.0737Z"
        fill="#F9B499" />
    <path
        d="M195.054 51.8789V52.9629C195.054 53.5456 195.002 54.0371 194.897 54.4375C194.793 54.8379 194.644 55.1602 194.448 55.4043C194.253 55.6484 194.017 55.8258 193.74 55.9365C193.467 56.0439 193.158 56.0977 192.812 56.0977C192.539 56.0977 192.287 56.0635 192.056 55.9951C191.825 55.9268 191.616 55.8177 191.431 55.668C191.248 55.515 191.092 55.3164 190.962 55.0723C190.832 54.8281 190.732 54.5319 190.664 54.1836C190.596 53.8353 190.562 53.4284 190.562 52.9629V51.8789C190.562 51.2962 190.614 50.8079 190.718 50.4141C190.825 50.0202 190.977 49.7044 191.172 49.4668C191.367 49.2259 191.602 49.0534 191.875 48.9492C192.152 48.8451 192.461 48.793 192.803 48.793C193.079 48.793 193.333 48.8271 193.564 48.8955C193.799 48.9606 194.007 49.0664 194.189 49.2129C194.372 49.3561 194.526 49.5482 194.653 49.7891C194.784 50.0267 194.883 50.318 194.951 50.6631C195.02 51.0081 195.054 51.4134 195.054 51.8789ZM194.146 53.1094V51.7275C194.146 51.4085 194.126 51.1286 194.087 50.8877C194.051 50.6436 193.997 50.4352 193.926 50.2627C193.854 50.0902 193.763 49.9502 193.652 49.8428C193.545 49.7354 193.42 49.6572 193.276 49.6084C193.136 49.5563 192.979 49.5303 192.803 49.5303C192.588 49.5303 192.397 49.571 192.231 49.6523C192.065 49.7305 191.925 49.8558 191.812 50.0283C191.701 50.2008 191.616 50.4271 191.558 50.707C191.499 50.987 191.47 51.3271 191.47 51.7275V53.1094C191.47 53.4284 191.488 53.71 191.523 53.9541C191.562 54.1982 191.619 54.4098 191.694 54.5889C191.769 54.7646 191.86 54.9095 191.968 55.0234C192.075 55.1374 192.199 55.222 192.339 55.2773C192.482 55.3294 192.64 55.3555 192.812 55.3555C193.034 55.3555 193.228 55.3132 193.394 55.2285C193.56 55.1439 193.698 55.012 193.809 54.833C193.923 54.6507 194.007 54.418 194.062 54.1348C194.118 53.8483 194.146 53.5065 194.146 53.1094Z"
        fill="black" />
</svg>
