<svg width="341" height="269" viewBox="0 0 341 269" fill="none" xmlns="http://www.w3.org/2000/svg">
    <path
        d="M68.7151 76.6085C68.9672 87.2442 57.5645 108.811 57.5645 108.811C60.6958 111.316 66.084 138.878 66.084 138.878C61.2 138.626 58.8171 143.137 58.8171 143.137L47.9186 109.812C47.1663 104.691 47.9186 102.296 47.9186 102.296L59.8214 66.8434C61.074 63.6015 75.8994 62.4749 75.8994 62.4749C75.8994 62.4749 93.7458 60.3083 99.3073 64.3775C99.3073 64.3775 106.129 68.7617 111.419 82.7378L103.912 89.8913L103.38 80.6698L106.346 132.225C106.346 132.225 92.0679 139.662 71.3619 136.688L63.705 132.596L56.3238 107.231L68.7348 76.6085"
        fill="#00D2CB" />
    <path
        d="M77.5931 53.5959L78.1091 62.3841C78.1091 62.3841 74.4737 62.7781 76.1043 65.3424C76.1043 65.3424 76.7424 66.7605 81.5516 67.5878C82.462 67.7426 83.388 67.7849 84.3087 67.7138C86.7349 67.5208 91.4339 66.8117 92.3713 64.208C92.8912 62.7544 92.1113 62.2148 90.0435 61.9312C90.0435 61.9312 90.012 61.9312 89.9923 61.9508L90.1183 56.1682L80.3896 50.7913L78.8338 51.0276L77.5931 53.5959Z"
        fill="#F9B499" />
    <path
        d="M154.276 201.637V13.6413C154.276 12.1786 154.857 10.7759 155.891 9.74171C156.926 8.70749 158.328 8.12646 159.791 8.12646H300.266C300.266 8.12646 286.346 10.6593 286.996 28.0231V202.503C286.995 204.73 286.11 206.866 284.535 208.441C282.961 210.015 280.825 210.901 278.599 210.902H163.54C161.083 210.902 158.727 209.926 156.99 208.188C155.252 206.451 154.276 204.094 154.276 201.637Z"
        fill="#CCCCCC" />
    <path opacity="0.2"
        d="M176.648 54.8998C182.33 54.8998 186.936 50.2933 186.936 44.6108C186.936 38.9283 182.33 34.3218 176.648 34.3218C170.966 34.3218 166.36 38.9283 166.36 44.6108C166.36 50.2933 170.966 54.8998 176.648 54.8998Z"
        fill="black" />
    <path
        d="M176.648 51.1851C176.412 51.1843 176.183 51.1069 175.995 50.9645L169.476 45.9855C169.258 45.8097 169.116 45.5556 169.083 45.2772C169.049 44.9989 169.125 44.7183 169.295 44.4954C169.465 44.2724 169.715 44.1247 169.993 44.0837C170.27 44.0427 170.553 44.1117 170.78 44.2759L176.57 48.6956L190.749 35.1646C190.853 35.0671 190.974 34.991 191.107 34.9405C191.24 34.89 191.382 34.8661 191.524 34.8703C191.666 34.8746 191.806 34.9067 191.935 34.965C192.065 35.0232 192.182 35.1065 192.279 35.2099C192.377 35.3134 192.453 35.4351 192.504 35.568C192.554 35.7009 192.578 35.8424 192.574 35.9845C192.569 36.1266 192.537 36.2665 192.479 36.3962C192.421 36.5259 192.338 36.6428 192.234 36.7403L177.369 50.9212C177.17 51.0952 176.913 51.1892 176.648 51.1851Z"
        fill="#D1D3D4" />
    <path opacity="0.2"
        d="M176.648 88.3234C182.33 88.3234 186.936 83.7169 186.936 78.0344C186.936 72.3519 182.33 67.7454 176.648 67.7454C170.966 67.7454 166.36 72.3519 166.36 78.0344C166.36 83.7169 170.966 88.3234 176.648 88.3234Z"
        fill="black" />
    <path
        d="M176.648 84.3726C176.412 84.3738 176.182 84.2962 175.995 84.152L169.476 79.1769C169.258 79.0011 169.116 78.747 169.083 78.4686C169.049 78.1903 169.125 77.9097 169.295 77.6868C169.465 77.4638 169.715 77.3161 169.993 77.2751C170.27 77.2341 170.553 77.303 170.78 77.4673L176.57 81.8909L190.749 68.36C190.955 68.163 191.232 68.0561 191.517 68.0628C191.802 68.0694 192.073 68.1891 192.27 68.3954C192.466 68.6018 192.573 68.8779 192.567 69.163C192.56 69.4482 192.44 69.719 192.234 69.9159L177.369 84.0968C177.172 84.2754 176.915 84.3738 176.648 84.3726Z"
        fill="#D1D3D4" />
    <path opacity="0.2"
        d="M176.503 121.747C182.184 121.747 186.791 117.14 186.791 111.458C186.791 105.776 182.184 101.169 176.503 101.169C170.821 101.169 166.215 105.776 166.215 111.458C166.215 117.14 170.821 121.747 176.503 121.747Z"
        fill="black" />
    <path
        d="M176.503 118.032C176.268 118.033 176.039 117.956 175.853 117.812L169.334 112.837C169.218 112.753 169.119 112.646 169.045 112.523C168.97 112.401 168.921 112.264 168.9 112.122C168.879 111.98 168.887 111.835 168.923 111.696C168.959 111.557 169.022 111.427 169.109 111.313C169.196 111.199 169.305 111.103 169.43 111.032C169.554 110.96 169.692 110.915 169.834 110.897C169.977 110.88 170.121 110.891 170.259 110.931C170.397 110.97 170.526 111.037 170.638 111.127L176.428 115.547L190.635 102.024C190.735 101.918 190.856 101.834 190.99 101.777C191.124 101.719 191.268 101.69 191.414 101.69C191.559 101.69 191.703 101.72 191.837 101.777C191.971 101.834 192.092 101.918 192.192 102.024C192.293 102.129 192.371 102.254 192.421 102.391C192.472 102.527 192.495 102.673 192.487 102.818C192.48 102.964 192.444 103.106 192.38 103.237C192.316 103.368 192.226 103.484 192.116 103.58L177.255 117.761C177.048 117.945 176.779 118.042 176.503 118.032Z"
        fill="#D1D3D4" />
    <path opacity="0.2"
        d="M176.503 155.175C182.184 155.175 186.791 150.568 186.791 144.885C186.791 139.203 182.184 134.596 176.503 134.596C170.821 134.596 166.215 139.203 166.215 144.885C166.215 150.568 170.821 155.175 176.503 155.175Z"
        fill="black" />
    <path
        d="M176.503 151.224C176.268 151.223 176.04 151.145 175.853 151.003L169.334 146.024C169.218 145.94 169.119 145.833 169.045 145.711C168.97 145.588 168.921 145.452 168.9 145.31C168.879 145.168 168.887 145.023 168.923 144.884C168.959 144.745 169.022 144.614 169.109 144.5C169.196 144.386 169.305 144.29 169.43 144.219C169.554 144.148 169.692 144.102 169.834 144.085C169.977 144.067 170.121 144.079 170.259 144.118C170.397 144.158 170.526 144.224 170.638 144.314L176.428 148.734L190.635 135.203C190.844 135.007 191.122 134.901 191.409 134.91C191.695 134.919 191.967 135.041 192.163 135.25C192.359 135.459 192.465 135.738 192.456 136.024C192.447 136.311 192.325 136.582 192.116 136.779L177.243 150.924C177.044 151.115 176.779 151.222 176.503 151.224Z"
        fill="#D1D3D4" />
    <path opacity="0.2"
        d="M178.389 188.598C184.071 188.598 188.677 183.992 188.677 178.309C188.677 172.627 184.071 168.02 178.389 168.02C172.707 168.02 168.101 172.627 168.101 178.309C168.101 183.992 172.707 188.598 178.389 188.598Z"
        fill="black" />
    <path
        d="M178.389 184.647C178.153 184.647 177.923 184.57 177.735 184.427L171.217 179.448C171.1 179.364 171.002 179.257 170.928 179.134C170.853 179.012 170.804 178.875 170.783 178.733C170.762 178.591 170.769 178.446 170.805 178.307C170.841 178.168 170.904 178.038 170.992 177.924C171.079 177.81 171.188 177.714 171.312 177.643C171.437 177.571 171.574 177.526 171.717 177.508C171.859 177.491 172.004 177.502 172.142 177.542C172.28 177.581 172.409 177.648 172.52 177.738L178.31 182.162L192.51 168.631C192.613 168.533 192.735 168.457 192.868 168.407C193 168.356 193.142 168.332 193.284 168.336C193.426 168.341 193.566 168.373 193.696 168.431C193.825 168.489 193.942 168.573 194.04 168.676C194.137 168.779 194.213 168.901 194.264 169.034C194.314 169.167 194.338 169.308 194.334 169.451C194.33 169.593 194.298 169.733 194.239 169.862C194.181 169.992 194.098 170.109 193.994 170.206L179.13 184.387C178.925 184.565 178.66 184.658 178.389 184.647Z"
        fill="#D1D3D4" />
    <g opacity="0.2">
        <path d="M262.844 37.7803H197.984V38.8557H262.844V37.7803Z" fill="black" />
        <path d="M248.507 41.9321H197.984V43.0075H248.507V41.9321Z" fill="black" />
        <path d="M230.416 46.0879H197.984V47.1633H230.416V46.0879Z" fill="black" />
        <path d="M210.848 50.2437H197.984V51.319H210.848V50.2437Z" fill="black" />
    </g>
    <g opacity="0.2">
        <path d="M262.844 71.2668H197.984V72.3422H262.844V71.2668Z" fill="black" />
        <path d="M248.507 75.4187H197.984V76.4941H248.507V75.4187Z" fill="black" />
        <path d="M230.416 79.5745H197.984V80.6499H230.416V79.5745Z" fill="black" />
        <path d="M210.848 83.7302H197.984V84.8056H210.848V83.7302Z" fill="black" />
    </g>
    <g opacity="0.2">
        <path d="M262.844 104.75H197.984V105.825H262.844V104.75Z" fill="black" />
        <path d="M248.507 108.905H197.984V109.981H248.507V108.905Z" fill="black" />
        <path d="M230.416 113.061H197.984V114.136H230.416V113.061Z" fill="black" />
        <path d="M210.848 117.217H197.984V118.292H210.848V117.217Z" fill="black" />
    </g>
    <g opacity="0.2">
        <path d="M262.844 138.114H197.984V139.19H262.844V138.114Z" fill="black" />
        <path d="M248.507 142.27H197.984V143.345H248.507V142.27Z" fill="black" />
        <path d="M230.416 146.426H197.984V147.501H230.416V146.426Z" fill="black" />
        <path d="M210.848 150.578H197.984V151.653H210.848V150.578Z" fill="black" />
    </g>
    <g opacity="0.2">
        <path d="M263.58 171.542H198.721V172.617H263.58V171.542Z" fill="black" />
        <path d="M249.243 175.694H198.721V176.769H249.243V175.694Z" fill="black" />
        <path d="M231.152 179.849H198.721V180.925H231.152V179.849Z" fill="black" />
        <path d="M211.585 184.005H198.721V185.081H211.585V184.005Z" fill="black" />
    </g>
    <path
        d="M286.996 36.9138H315.631V23.4813C315.631 19.4069 314.012 15.4993 311.131 12.6183C308.251 9.73721 304.343 8.11865 300.269 8.11865C300.269 8.11865 288.209 9.87551 286.96 23.7925L286.996 36.9138Z"
        fill="#CCCCCC" />
    <path opacity="0.2"
        d="M286.996 36.9138H315.631V23.4813C315.631 19.4069 314.012 15.4993 311.131 12.6183C308.251 9.73721 304.343 8.11865 300.269 8.11865C300.269 8.11865 288.209 9.87551 286.96 23.7925L286.996 36.9138Z"
        fill="black" />
    <path
        d="M64.3196 142.325C64.5574 145.421 64.9995 148.497 65.643 151.535C66.4899 155.474 67.9511 165.688 69.7354 192.061L74.4619 246.334C74.4619 246.334 82.0597 248.642 86.1284 244.841C86.1284 244.841 88.1647 191.111 88.0308 183.651C88.0308 183.651 86.9555 155.155 88.0308 152.307L94.5612 185.14L61.4443 215.4C61.4443 215.4 62.3975 226.252 68.3647 226.796L108.658 194.641C108.658 194.641 110.556 192.742 110.423 185.683L106.346 132.225C106.346 132.225 91.1621 140.627 63.8076 135.932L64.3196 142.325Z"
        fill="#2F2E41" />
    <path
        d="M61.657 216.858L55.3235 222.223C54.7178 222.733 54.2879 223.42 54.0949 224.188C53.9019 224.956 53.9556 225.765 54.2482 226.501C55.9852 230.901 59.7625 239.835 63.0671 243.534C63.491 244.013 64.0295 244.376 64.6323 244.591C65.235 244.805 65.8823 244.863 66.5135 244.759H66.5883C67.1929 244.657 67.7633 244.408 68.2494 244.035C68.7356 243.661 69.1226 243.174 69.3765 242.616C69.6304 242.058 69.7435 241.446 69.7058 240.834C69.6681 240.222 69.4808 239.629 69.1603 239.106C67.0058 235.525 64.5638 229.833 68.3725 226.788C68.3765 226.796 63.2758 226.867 61.657 216.858Z"
        fill="#00D2CB" />
    <path
        d="M74.4814 246.334V249.915C74.4815 250.621 74.6881 251.313 75.0758 251.903C75.4634 252.494 76.0153 252.958 76.6635 253.24L93.4071 260.495C93.8548 260.689 94.3437 260.769 94.8297 260.727C95.3158 260.685 95.7838 260.523 96.1918 260.255L98.3069 258.876C98.7042 258.617 99.0331 258.265 99.2656 257.851C99.4981 257.436 99.6273 256.972 99.6424 256.498C99.6575 256.023 99.5579 255.552 99.3522 255.124C99.1464 254.696 98.8405 254.324 98.4605 254.039L86.148 244.841C86.148 244.841 82.6071 248.422 74.4814 246.334Z"
        fill="#00D2CB" />
    <path
        d="M38.3357 152.283L44.035 146.895C44.035 146.895 45.4727 158.767 57.5016 161.304L51.6762 166.945C51.6762 166.945 40.2145 164.688 38.3357 152.283Z"
        fill="#BCBEC0" />
    <path
        d="M38.3357 152.283L25.3694 165.05C25.3694 165.05 25.3694 176.517 38.3357 179.333L51.6762 166.933C51.6762 166.933 40.7777 164.877 38.3357 152.283Z"
        fill="#2F2E41" />
    <path d="M135.3 60.0088L164.616 45.9697L148.64 75.2336L141.688 72.9765L135.3 65.0824V60.0088Z"
        fill="#2F2E41" />
    <path d="M157.486 59.024L151.5 52.2527L164.615 45.9697L157.486 59.024Z" fill="#D1D3D4" />
    <path opacity="0.2"
        d="M88.0544 152.307C88.0544 152.307 88.8422 147.525 89.9214 146.339C89.9214 146.339 93.7459 183.761 100.209 186.778C100.209 186.778 96.5227 186.325 94.1319 187.692L89.0982 191.698L91.4614 208.385L87.3455 211.67L87.9599 191.186L94.5612 185.14L88.0544 152.307Z"
        fill="black" />
    <path opacity="0.2"
        d="M104.53 81.615L105.708 88.1815L103.912 89.8911L103.152 78.9836L104.53 81.615Z"
        fill="black" />
    <path
        d="M78.2705 50.1453C78.2705 50.1453 81.0276 61.2615 90.0867 58.9453L90.1182 57.2594C90.1182 57.2594 85.8368 55.4237 78.2705 50.1453Z"
        fill="#F7AA92" />
    <path
        d="M88.1529 58.3506C92.8842 58.3506 96.7197 52.8075 96.7197 45.9698C96.7197 39.1321 92.8842 33.5891 88.1529 33.5891C83.4216 33.5891 79.5862 39.1321 79.5862 45.9698C79.5862 52.8075 83.4216 58.3506 88.1529 58.3506Z"
        fill="#F9B499" />
    <path
        d="M79.5901 45.9697C79.5901 45.9697 89.4921 52.3905 95.2348 38.9974C95.2348 38.9974 96.3376 41.6642 96.5109 43.2517C97.0782 42.2809 97.3962 41.1847 97.4365 40.061C97.5163 38.5487 97.207 37.0413 96.5381 35.6827C95.8692 34.324 94.8631 33.1597 93.6159 32.3009C90.1814 29.8586 83.8361 27.3218 75.3954 32.4781C75.3954 32.4781 69.2076 35.7791 69.6212 45.9579C69.6212 45.9579 70.015 53.8007 78.2864 54.624C78.2864 54.624 80.0312 54.9943 78.9323 51.2639C78.9323 51.2757 75.6868 48.1165 79.5901 45.9697Z"
        fill="#2F2E41" />
    <path
        d="M79.5901 51.4294C80.6887 51.4294 81.5792 50.2072 81.5792 48.6996C81.5792 47.1919 80.6887 45.9697 79.5901 45.9697C78.4916 45.9697 77.6011 47.1919 77.6011 48.6996C77.6011 50.2072 78.4916 51.4294 79.5901 51.4294Z"
        fill="#F9B499" />
    <path opacity="0.2"
        d="M63.78 128.101L65.2216 126.726C65.2216 126.726 59.475 109.811 62.2006 104.454C62.2006 104.454 73.0991 85.3809 68.8728 75.2336C68.8728 75.2336 69.2391 86.2987 57.5647 108.811C57.5647 108.811 59.1559 108.519 63.78 128.101Z"
        fill="black" />
    <path
        d="M44.0352 146.894L135.3 60.0088V65.0824L141.688 72.9607L148.64 75.2375L57.5056 161.304C57.5056 161.304 45.5437 159.456 44.0352 146.894Z"
        fill="#D1D3D4" />
    <path opacity="0.21"
        d="M45.5632 152.334L135.299 65.0825L141.688 72.9608L51.6761 159.039C51.6761 159.039 47.9186 157.172 45.5632 152.334Z"
        fill="black" />
    <path
        d="M58.8171 143.137C58.8171 143.137 62.5786 155.104 65.3948 154.915C65.3948 154.915 71.5983 153.288 72.3467 149.03C72.3467 149.03 68.9673 145.205 70.9091 146.02C70.9091 146.02 73.5401 148.588 74.4776 147.596C74.4776 147.596 75.8522 145.149 65.3948 138.886C65.383 138.878 62.0745 138.567 58.8171 143.137Z"
        fill="#F9B499" />
    <path
        d="M55.8276 133.998L58.8171 143.137C58.8171 143.137 61.6727 138.878 65.3948 138.878L63.7799 128.101L55.8276 133.998Z"
        fill="#00D2CB" />
    <path
        d="M112.931 109.536C111.959 105.904 110.938 99.3332 115.192 96.5365C115.192 96.5365 119.875 93.6845 120.423 101.894L123.204 99.2663C123.204 99.2663 124.547 108.882 116.587 111.478C116.219 111.601 115.831 111.649 115.445 111.617C115.059 111.586 114.683 111.476 114.341 111.294C113.999 111.112 113.697 110.862 113.455 110.56C113.212 110.258 113.034 109.909 112.931 109.536Z"
        fill="#F9B499" />
</svg>
