<svg width="30" height="30" viewBox="0 0 30 30" fill="none" xmlns="http://www.w3.org/2000/svg">
    <g clip-path="url(#clip0_284_1121)">
        <path
            d="M14.2675 12.5L5.03871 21.7725C4.79415 22.0154 4.60005 22.3043 4.4676 22.6226C4.33516 22.9409 4.26697 23.2822 4.26697 23.6269C4.26697 23.9716 4.33516 24.3129 4.4676 24.6312C4.60005 24.9494 4.79415 25.2383 5.03871 25.4813C5.53293 25.9728 6.20165 26.2488 6.89871 26.2488C7.59578 26.2488 8.2645 25.9728 8.75871 25.4813L18.0175 16.25"
            stroke="#00D2CB" stroke-width="2" stroke-linecap="round" stroke-linejoin="round" />
        <path
            d="M22.6513 19.1163L25.8838 15.8838C26.1181 15.6494 26.2497 15.3315 26.2497 15.0001C26.2497 14.6686 26.1181 14.3507 25.8838 14.1163L16.4013 4.63381C16.1669 4.39947 15.849 4.26782 15.5175 4.26782C15.1861 4.26782 14.8682 4.39947 14.6338 4.63381L11.4013 7.86631C11.1669 8.10072 11.0353 8.4186 11.0353 8.75006C11.0353 9.08151 11.1669 9.3994 11.4013 9.63381L20.8838 19.1163C21.1182 19.3506 21.4361 19.4823 21.7675 19.4823C22.099 19.4823 22.4169 19.3506 22.6513 19.1163V19.1163Z"
            stroke="#00D2CB" stroke-width="2" stroke-linecap="round" stroke-linejoin="round" />
    </g>
    <defs>
        <clipPath id="clip0_284_1121">
            <rect width="30" height="30" fill="white" />
        </clipPath>
    </defs>
</svg>
