<svg xmlns="http://www.w3.org/2000/svg" width="27.886" height="28.178" viewBox="0 0 27.886 28.178">
  <path id="Path_11" data-name="Path 11" d="M30.408,23.159a3.1,3.1,0,1,0-3.1,3.131A3.124,3.124,0,0,0,30.408,23.159Zm-3.1,1.879a1.879,1.879,0,1,1,1.859-1.879A1.874,1.874,0,0,1,27.309,25.038Zm0,1.252a5.4,5.4,0,0,0-3.191,1.033,5.553,5.553,0,0,0-10.349,0A5.546,5.546,0,0,0,5,31.926v.626a.625.625,0,0,0,.62.626H32.267a.625.625,0,0,0,.62-.626v-.626A5.623,5.623,0,0,0,27.309,26.29ZM13.366,29.421v2.5H6.239a4.374,4.374,0,0,1,4.338-4.383,4.264,4.264,0,0,1,2.851,1.1A6.162,6.162,0,0,0,13.366,29.421Zm9.915,2.5H14.605v-2.5a4.338,4.338,0,1,1,8.676,0Zm1.239,0v-2.5a6.162,6.162,0,0,0-.062-.783,4.424,4.424,0,0,1,2.851-1.1,4.374,4.374,0,0,1,4.338,4.383ZM13.676,23.159a3.1,3.1,0,1,0-3.1,3.131A3.124,3.124,0,0,0,13.676,23.159Zm-3.1,1.879a1.879,1.879,0,1,1,1.859-1.879A1.874,1.874,0,0,1,10.577,25.038Zm11.464-4.383a3.1,3.1,0,1,0-3.1,3.131A3.124,3.124,0,0,0,22.042,20.655Zm-3.1,1.879A1.879,1.879,0,1,1,20.8,20.655,1.874,1.874,0,0,1,18.943,22.533ZM7.448,11.418l-.465,2.849a.684.684,0,0,0,.248.626.612.612,0,0,0,.651.031l2.386-1.315,2.386,1.315a.505.505,0,0,0,.31.063.463.463,0,0,0,.341-.125.6.6,0,0,0,.248-.626l-.465-2.849,1.518-1.565,1.518,1.565-.465,2.849a.684.684,0,0,0,.248.626.612.612,0,0,0,.651.031l2.386-1.315,2.386,1.315a.505.505,0,0,0,.31.063.463.463,0,0,0,.341-.125.6.6,0,0,0,.248-.626l-.465-2.849L23.281,9.79,24.8,11.356,24.335,14.2a.684.684,0,0,0,.248.626.612.612,0,0,0,.651.031l2.386-1.315L30,14.862a.505.505,0,0,0,.31.063.463.463,0,0,0,.341-.125.6.6,0,0,0,.248-.626l-.465-2.849,1.952-2.035a.657.657,0,0,0,.155-.626.609.609,0,0,0-.5-.407l-2.665-.407L28.177,5.282A.744.744,0,0,0,27.619,5a.638.638,0,0,0-.558.344L25.853,7.912l-2.572.438-2.572-.407L19.5,5.376A.612.612,0,0,0,18.943,5a.638.638,0,0,0-.558.344L17.177,7.912l-2.572.438-2.572-.407L10.825,5.376A.612.612,0,0,0,10.267,5a.638.638,0,0,0-.558.344L8.5,7.912l-2.665.407a.609.609,0,0,0-.5.407.59.59,0,0,0,.155.626l1.952,2.066ZM26.38,9.133a.6.6,0,0,0,.465-.344L27.619,7.1l.775,1.691a.6.6,0,0,0,.465.344l1.8.282-1.332,1.378a.512.512,0,0,0-.155.532l.31,1.91-1.549-.877a.505.505,0,0,0-.31-.063.908.908,0,0,0-.31.063l-1.549.877.31-1.91a.647.647,0,0,0-.155-.532L24.583,9.415Zm-8.676,0a.6.6,0,0,0,.465-.344L18.943,7.1l.775,1.691a.6.6,0,0,0,.465.344l1.8.282-1.332,1.378a.512.512,0,0,0-.155.532l.31,1.91-1.549-.877a.505.505,0,0,0-.31-.063.908.908,0,0,0-.31.063l-1.549.877.31-1.91a.647.647,0,0,0-.155-.532L15.907,9.415Zm-8.676,0a.6.6,0,0,0,.465-.344L10.267,7.1l.775,1.691a.6.6,0,0,0,.465.344l1.8.282-1.332,1.378a.512.512,0,0,0-.155.532l.31,1.91-1.549-.877a.505.505,0,0,0-.31-.063.908.908,0,0,0-.31.063l-1.549.877.31-1.91a.647.647,0,0,0-.155-.532L7.231,9.415Z" transform="translate(-5 -5)" fill="#00d2cb"/>
</svg>
