<svg xmlns="http://www.w3.org/2000/svg" width="25.349" height="25.349" viewBox="0 0 25.349 25.349">
  <g id="Icone_retorno" data-name="Icone retorno" transform="translate(0.5 0.5)">
    <path id="Path_3" data-name="Path 3" d="M12.175,0A12.175,12.175,0,1,0,24.349,12.175,12.175,12.175,0,0,0,12.175,0Zm0,23.588A11.414,11.414,0,1,1,23.588,12.175,11.414,11.414,0,0,1,12.175,23.588Z" fill="#fff" stroke="#00d2cb" stroke-width="1"/>
    <path id="Path_4" data-name="Path 4" d="M38.011,34H28.88a.38.38,0,1,0,0,.761h9.131a3.995,3.995,0,0,1,0,7.99H29.8l3.538-3.534a.381.381,0,0,0-.538-.54l-4.185,4.185-.015.019a.228.228,0,0,0-.032.04l-.011.019-.025.046v.023a.2.2,0,0,1-.015.048.38.38,0,0,0,0,.152.171.171,0,0,0,.015.048v.023l.025.046.011.019a.35.35,0,0,0,.032.042l.015.017L32.8,47.586a.381.381,0,1,0,.538-.538L29.8,43.511h8.212a4.756,4.756,0,0,0,0-9.511Z" transform="translate(-23.078 -27.532)" fill="#fff" stroke="#00d2cb" stroke-width="1"/>
  </g>
</svg>
