<svg xmlns="http://www.w3.org/2000/svg" width="32.543" height="34.249" viewBox="0 0 32.543 34.249">
  <path id="whatsapp" d="M27.669,36.977A15.613,15.613,0,0,0,16.264,32C7.373,32,.138,39.614.138,48.971a17.681,17.681,0,0,0,2.15,8.486L0,66.249l8.55-2.362a15.449,15.449,0,0,0,7.707,2.064h.007c8.884,0,16.279-7.614,16.279-16.972A17.483,17.483,0,0,0,27.669,36.977Zm-11.4,26.115a12.878,12.878,0,0,1-6.828-1.965l-.487-.306-5.07,1.4L5.23,57.014l-.32-.535a14.608,14.608,0,0,1-2.048-7.507c0-7.775,6.015-14.1,13.41-14.1A12.959,12.959,0,0,1,25.744,39a14.528,14.528,0,0,1,4.075,9.976C29.819,56.762,23.652,63.091,16.264,63.091Zm7.351-10.565c-.4-.214-2.383-1.238-2.753-1.376s-.639-.214-.908.214-1.039,1.376-1.278,1.667-.472.321-.872.107a11.155,11.155,0,0,1-5.484-5.046c-.414-.749.414-.7,1.184-2.316a.822.822,0,0,0-.036-.742c-.1-.214-.908-2.3-1.242-3.15-.327-.826-.661-.711-.908-.726s-.5-.015-.77-.015a1.46,1.46,0,0,0-1.075.527,4.873,4.873,0,0,0-1.409,3.54A8.539,8.539,0,0,0,9.7,49.6c.2.283,2.84,4.564,6.886,6.406,2.557,1.162,3.559,1.261,4.838,1.063a4.137,4.137,0,0,0,2.717-2.018,3.72,3.72,0,0,0,.232-2.018C24.284,52.84,24.015,52.733,23.616,52.526Z" transform="translate(0 -32)" fill="#fff"/>
</svg>
